# xmcd
# 
# Track frame offsets:
#     150
#     22785
#     43580
#     66917
#     91393
#     114615
#     140020
#     154100
#     173183
#     191620
#     211180
#     236000
#     254029
# 
# Disc length: 3682
# 
# Revision: 2
# Processed by: cddbd v1.5.2PL0 Copyright (c) Steve Scherf et al.
# Submitted via: BonkEnc v1.0.6
# 
DISCID=b60e600d
DTITLE=Ricky Vallen - Homenagens
DYEAR=2007
DGENRE=mpb
TTITLE0=Palavra e som
TTITLE1=Luz dos olhos
TTITLE2=A lenda
TTITLE3=Atras da porta
TTITLE4=Exagerado
TTITLE5=Avesso
TTITLE6=Fogo e paixão
TTITLE7=Se Deus me ouvisse
TTITLE8=Dizem que eu mudei
TTITLE9=Coração em pedaços
TTITLE10=São tantas coisas
TTITLE11=Cadê você?
TTITLE12=Dia de formatura
EXTD=YEAR: 2007
EXTT0=
EXTT1=
EXTT2=
EXTT3=
EXTT4=
EXTT5=
EXTT6=
EXTT7=
EXTT8=
EXTT9=
EXTT10=
EXTT11=
EXTT12=
PLAYORDER=
